<?xml version="1.0" encoding="utf-8"?>
<!-- Generator: Adobe Illustrator 20.1.0, SVG Export Plug-In . SVG Version: 6.00 Build 0)  -->
<svg version="1.1" id="Layer_1" xmlns="http://www.w3.org/2000/svg" xmlns:xlink="http://www.w3.org/1999/xlink" x="0px" y="0px"
	 viewBox="0 0 144 40.8" style="enable-background:new 0 0 144 40.8;" xml:space="preserve">
<style type="text/css">
	.st0{fill:#877874;}
	.st1{fill:none;stroke:#F09F37;}
</style>
<title>Frame-Sizing-Icons</title>
<path class="st0" d="M140.3,1.6c0,0-17.7-1.6-24.8-1.6C94.1,0,79,6.5,71.7,6.5S49.2,0,27.9,0C20.7,0,3,1.6,3,1.6
	C3,10,2.7,12.2,4.6,12.8c1.2,0.3,3.7,1.2,5.2,9.8s2.8,18.3,25.6,18.3c20.7,0,24.3-9.3,25.4-11.8c0.6-1.3,3.7-6.3,5-10.3
	s5.9-3.2,5.9-3.2s4.4-0.7,5.7,3.2s4.4,9,5,10.3c1.1,2.5,4.7,11.8,25.4,11.8c22.9,0,24.1-9.8,25.6-18.3s4-9.4,5.2-9.8
	C140.6,12.2,140.3,10,140.3,1.6z M61.3,19.8c-3.6,13.7-6.5,17.5-26.5,17.5c-21.2,0-20.7-10.2-22.5-20.6C9.9,2.4,22.5,2.3,38.6,4.3
	C48.6,5.4,65.2,5.4,61.3,19.8L61.3,19.8z M131,16.7c-1.8,10.4-1.3,20.6-22.5,20.6c-20.1,0-22.9-3.8-26.5-17.5
	C78.1,5.4,94.7,5.4,104.7,4.3C120.8,2.3,133.4,2.4,131,16.7z"/>
<line class="st1" x1="134" y1="14.9" x2="82" y2="14.9"/>
</svg>
