<?xml version="1.0" encoding="utf-8"?>
<!-- Generator: Adobe Illustrator 20.1.0, SVG Export Plug-In . SVG Version: 6.00 Build 0)  -->
<svg version="1.1" id="Layer_1" xmlns="http://www.w3.org/2000/svg" xmlns:xlink="http://www.w3.org/1999/xlink" x="0px" y="0px"
	 viewBox="0 0 144 40.6" style="enable-background:new 0 0 144 40.6;" xml:space="preserve">
<style type="text/css">
	.st0{fill:#877874;}
	.st1{fill:none;stroke:#F09F37;}
</style>
<title>Frame-Sizing-Icons</title>
<path class="st0" d="M139.4,1.5c0,0-17.6-1.5-24.7-1.5C93.5,0,78.5,6.5,71.2,6.5S48.9,0,27.7,0C20.6,0,3,1.5,3,1.5
	c0,8.4-0.3,10.6,1.6,11.1c1.2,0.3,3.6,1.2,5.2,9.7s2.8,18.2,25.5,18.2c20.5,0,24.1-9.2,25.2-11.7c0.6-1.3,3.7-6.3,5-10.2
	s5.8-3.2,5.8-3.2s4.3-0.7,5.7,3.2s4.4,8.9,5,10.2c1.1,2.4,4.7,11.7,25.2,11.7c22.7,0,23.9-9.7,25.5-18.2s4-9.3,5.2-9.7
	C139.7,12.1,139.4,9.9,139.4,1.5z M60.9,19.7c-3.6,13.6-6.4,17.4-26.4,17.4c-21,0-20.6-10.1-22.3-20.5C9.8,2.4,22.4,2.3,38.3,4.2
	C48.3,5.4,64.8,5.4,60.9,19.7z M130.1,16.6c-1.8,10.4-1.3,20.5-22.3,20.5c-19.9,0-22.8-3.8-26.4-17.4C77.6,5.4,94.1,5.4,104,4.2
	C120,2.3,132.5,2.4,130.1,16.6z"/>
<line class="st1" x1="141" y1="17.8" x2="3" y2="17.8"/>
</svg>
