<?xml version="1.0" encoding="utf-8"?>
<!-- Generator: Adobe Illustrator 20.1.0, SVG Export Plug-In . SVG Version: 6.00 Build 0)  -->
<svg version="1.1" id="Layer_1" xmlns="http://www.w3.org/2000/svg" xmlns:xlink="http://www.w3.org/1999/xlink" x="0px" y="0px"
	 viewBox="0 0 144 40.5" style="enable-background:new 0 0 144 40.5;" xml:space="preserve">
<style type="text/css">
	.st0{fill:#877874;}
	.st1{fill:none;stroke:#F09F37;}
</style>
<title>Frame-Sizing-Icons</title>
<path class="st0" d="M140.1,1.5c0,0-17.6-1.5-24.6-1.5C94.3,0,79.3,6.4,72,6.4S49.8,0,28.6,0C21.5,0,3.9,1.5,3.9,1.5
	c0,8.4-0.3,10.6,1.6,11.1c1.2,0.3,3.6,1.2,5.2,9.7s2.8,18.2,25.4,18.2c20.5,0,24.1-9.2,25.2-11.7c0.6-1.3,3.6-6.3,5-10.2
	s5.7-3.2,5.7-3.2s4.3-0.7,5.7,3.2s4.4,8.9,5,10.2c1.1,2.4,4.7,11.7,25.2,11.7c22.7,0,23.9-9.7,25.4-18.2s4-9.3,5.2-9.7
	C140.4,12.1,140.1,9.9,140.1,1.5z M61.8,19.7C58.2,33.2,55.4,37,35.5,37c-21,0-20.5-10.1-22.3-20.5C10.8,2.4,23.3,2.2,39.2,4.2
	C49.2,5.4,65.6,5.4,61.8,19.7z M130.8,16.6c-1.8,10.3-1.3,20.5-22.3,20.5c-19.9,0-22.7-3.8-26.3-17.3C78.4,5.4,94.8,5.4,104.8,4.2
	C120.7,2.2,133.2,2.4,130.8,16.6L130.8,16.6z"/>
<line class="st1" x1="35.5" y1="37.2" x2="35.5" y2="3.2"/>
</svg>
