<?xml version="1.0" encoding="utf-8"?>
<!-- Generator: Adobe Illustrator 20.1.0, SVG Export Plug-In . SVG Version: 6.00 Build 0)  -->
<svg version="1.1" id="Layer_1" xmlns="http://www.w3.org/2000/svg" xmlns:xlink="http://www.w3.org/1999/xlink" x="0px" y="0px"
	 viewBox="0 0 144 41.7" style="enable-background:new 0 0 144 41.7;" xml:space="preserve">
<style type="text/css">
	.st0{fill:#877874;}
	.st1{fill:none;stroke:#F09F37;}
</style>
<title>Frame-Sizing-Icons</title>
<path class="st0" d="M141,2.3c0,0-17.8-1.6-25-1.6c-21.5,0-36.6,6.5-44,6.5S49.5,0.7,28,0.7c-7.2,0-25,1.6-25,1.6
	C3,10.7,2.7,13,4.6,13.5c1.2,0.3,3.7,1.2,5.3,9.8s2.8,18.4,25.8,18.4c20.8,0,24.4-9.4,25.5-11.8c0.6-1.3,3.7-6.3,5.1-10.3
	s5.8-3.3,5.8-3.3s4.4-0.7,5.8,3.3s4.5,9,5.1,10.3c1.1,2.5,4.7,11.8,25.5,11.8c23,0,24.2-9.8,25.8-18.4s4-9.4,5.3-9.8
	C141.3,13,141,10.7,141,2.3z M61.6,20.7C58,34.4,55.1,38.2,35,38.2c-21.3,0-20.8-10.2-22.6-20.7C9.9,3.1,22.6,3,38.8,5
	C48.8,6.2,65.5,6.2,61.6,20.7z M131.6,17.5c-1.8,10.5-1.3,20.7-22.6,20.7c-20.2,0-23-3.8-26.7-17.6C78.5,6.2,95.2,6.2,105.2,5
	C121.4,3,134.1,3.1,131.6,17.5L131.6,17.5z"/>
<line class="st1" x1="83" y1="0.5" x2="63" y2="0.5"/>
</svg>
