<?xml version="1.0" encoding="utf-8"?>
<!-- Generator: Adobe Illustrator 20.1.0, SVG Export Plug-In . SVG Version: 6.00 Build 0)  -->
<svg version="1.1" id="Layer_1" xmlns="http://www.w3.org/2000/svg" xmlns:xlink="http://www.w3.org/1999/xlink" x="0px" y="0px"
	 viewBox="0 0 144 41.2" style="enable-background:new 0 0 144 41.2;" xml:space="preserve">
<style type="text/css">
	.st0{fill:#877874;}
</style>
<title>Frame-Sizing-Icons</title>
<path class="st0" d="M141.7,1.6c0,0-17.9-1.6-25.1-1.6C95,0,79.8,6.6,72.4,6.6S49.7,0,28.1,0C20.9,0,3,1.6,3,1.6
	c0,8.5-0.3,10.8,1.6,11.3c1.2,0.3,3.7,1.2,5.3,9.8s2.8,18.5,25.9,18.5c20.9,0,24.5-9.4,25.6-11.9C62,28,65.1,23,66.5,19
	s5.9-3.3,5.9-3.3s4.4-0.7,5.8,3.3s4.5,9.1,5.1,10.4c1.1,2.5,4.8,11.9,25.6,11.9c23.1,0,24.3-9.9,25.9-18.5s4-9.5,5.3-9.8
	C142,12.3,141.7,10,141.7,1.6z M61.9,20c-3.7,13.8-6.5,17.7-26.8,17.7c-21.4,0-20.9-10.3-22.7-20.8C10,2.4,22.7,2.3,39,4.3
	C49.1,5.5,65.8,5.5,61.9,20z M132.2,16.8c-1.8,10.5-1.3,20.8-22.7,20.8c-20.3,0-23.1-3.9-26.8-17.7c-3.9-14.5,12.9-14.5,23-15.8
	C122,2.3,134.7,2.4,132.2,16.8z"/>
</svg>
